grf
version=1
nRows=25
nColumns=46
inDegrees=yes
endheader
time	ground_force_1_vx	ground_force_1_vy	ground_force_1_vz	ground_force_1_px	ground_force_1_py	ground_force_1_pz	ground_moment_1_mx	ground_moment_1_my	ground_moment_1_mz	ground_force_2_vx	ground_force_2_vy	ground_force_2_vz	ground_force_2_px	ground_force_2_py	ground_force_2_pz	ground_moment_2_mx	ground_moment_2_my	ground_moment_2_mz	ground_force_3_vx	ground_force_3_vy	ground_force_3_vz	ground_force_3_px	ground_force_3_py	ground_force_3_pz	ground_moment_3_mx	ground_moment_3_my	ground_moment_3_mz	ground_force_4_vx	ground_force_4_vy	ground_force_4_vz	ground_force_4_px	ground_force_4_py	ground_force_4_pz	ground_moment_4_mx	ground_moment_4_my	ground_moment_4_mz	ground_force_5_vx	ground_force_5_vy	ground_force_5_vz	ground_force_5_px	ground_force_5_py	ground_force_5_pz	ground_moment_5_mx	ground_moment_5_my	ground_moment_5_mz
0.000000	0.000000	0.000000	0.000000	0.000000	0.000000	0.000000	0.000000	0.000000	0.000000	0.000000	0.000000	0.000000	0.000000	0.000000	0.000000	0.000000	0.000000	0.000000	0.000000	0.000000	0.000000	0.000000	0.000000	0.000000	0.000000	0.000000	0.000000	3.837720	418.547095	-52.663680	0.193004	0.000000	-1.069937	-0.000000	4.585678	0.000000	-1.219639	473.471486	50.256647	0.208701	0.000000	-1.398973	0.000000	-4.324587	-0.000000
0.000500	0.000000	0.000000	0.000000	0.000000	0.000000	0.000000	0.000000	0.000000	0.000000	0.000000	0.000000	0.000000	0.000000	0.000000	0.000000	0.000000	0.000000	0.000000	0.000000	0.000000	0.000000	0.000000	0.000000	0.000000	0.000000	0.000000	0.000000	3.878086	418.515243	-52.677020	0.192997	0.000000	-1.069992	-0.000000	4.592812	0.000000	-1.220439	473.443899	50.278598	0.208694	0.000000	-1.398955	-0.000000	-4.322860	-0.000000
0.001000	0.000000	0.000000	0.000000	0.000000	0.000000	0.000000	0.000000	0.000000	0.000000	0.000000	0.000000	0.000000	0.000000	0.000000	0.000000	0.000000	0.000000	0.000000	0.000000	0.000000	0.000000	0.000000	0.000000	0.000000	0.000000	0.000000	0.000000	3.918344	418.484896	-52.690236	0.192991	0.000000	-1.070046	-0.000000	4.599864	0.000000	-1.220980	473.416117	50.300161	0.208687	0.000000	-1.398936	-0.000000	-4.321168	-0.000000
0.001500	0.000000	0.000000	0.000000	0.000000	0.000000	0.000000	0.000000	0.000000	0.000000	0.000000	0.000000	0.000000	0.000000	0.000000	0.000000	0.000000	0.000000	0.000000	0.000000	0.000000	0.000000	0.000000	0.000000	0.000000	0.000000	0.000000	0.000000	3.958367	418.456153	-52.703306	0.192984	0.000000	-1.070100	-0.000000	4.606812	0.000000	-1.221234	473.388215	50.321262	0.208680	0.000000	-1.398917	-0.000000	-4.319518	-0.000000
0.002000	0.000000	0.000000	0.000000	0.000000	0.000000	0.000000	0.000000	0.000000	0.000000	0.000000	0.000000	0.000000	0.000000	0.000000	0.000000	0.000000	0.000000	0.000000	0.000000	0.000000	0.000000	0.000000	0.000000	0.000000	0.000000	0.000000	0.000000	3.998033	418.429106	-52.716206	0.192979	0.000000	-1.070153	-0.000000	4.613634	0.000000	-1.221182	473.360254	50.341834	0.208673	0.000000	-1.398899	-0.000000	-4.317916	-0.000000
0.002500	0.000000	0.000000	0.000000	0.000000	0.000000	0.000000	0.000000	0.000000	0.000000	0.000000	0.000000	0.000000	0.000000	0.000000	0.000000	0.000000	0.000000	0.000000	0.000000	0.000000	0.000000	0.000000	0.000000	0.000000	0.000000	0.000000	0.000000	4.037230	418.403827	-52.728908	0.192973	0.000000	-1.070205	-0.000000	4.620311	0.000000	-1.220813	473.332278	50.361815	0.208666	0.000000	-1.398881	-0.000000	-4.316363	-0.000000
0.003000	0.000000	0.000000	0.000000	0.000000	0.000000	0.000000	0.000000	0.000000	0.000000	0.000000	0.000000	0.000000	0.000000	0.000000	0.000000	0.000000	0.000000	0.000000	0.000000	0.000000	0.000000	0.000000	0.000000	0.000000	0.000000	0.000000	0.000000	4.075863	418.380362	-52.741385	0.192968	0.000000	-1.070256	-0.000000	4.626826	0.000000	-1.220122	473.304323	50.381154	0.208659	0.000000	-1.398864	-0.000000	-4.314860	-0.000000
0.003500	0.000000	0.000000	0.000000	0.000000	0.000000	0.000000	0.000000	0.000000	0.000000	0.000000	0.000000	0.000000	0.000000	0.000000	0.000000	0.000000	0.000000	0.000000	0.000000	0.000000	0.000000	0.000000	0.000000	0.000000	0.000000	0.000000	0.000000	4.113853	418.358715	-52.753617	0.192963	0.000000	-1.070306	-0.000000	4.633166	0.000000	-1.219108	473.276413	50.399812	0.208652	0.000000	-1.398847	-0.000000	-4.313408	-0.000000
0.004000	0.000000	0.000000	0.000000	0.000000	0.000000	0.000000	0.000000	0.000000	0.000000	0.000000	0.000000	0.000000	0.000000	0.000000	0.000000	0.000000	0.000000	0.000000	0.000000	0.000000	0.000000	0.000000	0.000000	0.000000	0.000000	0.000000	0.000000	4.151131	418.338855	-52.765583	0.192958	0.000000	-1.070354	-0.000000	4.639321	0.000000	-1.217774	473.248566	50.417759	0.208645	0.000000	-1.398831	-0.000000	-4.312004	-0.000000
0.004500	0.000000	0.000000	0.000000	0.000000	0.000000	0.000000	0.000000	0.000000	0.000000	0.000000	0.000000	0.000000	0.000000	0.000000	0.000000	0.000000	0.000000	0.000000	0.000000	0.000000	0.000000	0.000000	0.000000	0.000000	0.000000	0.000000	0.000000	4.187648	418.320731	-52.777268	0.192954	0.000000	-1.070401	-0.000000	4.645283	0.000000	-1.216124	473.220799	50.434976	0.208639	0.000000	-1.398815	-0.000000	-4.310646	-0.000000
0.005000	0.000000	0.000000	0.000000	0.000000	0.000000	0.000000	0.000000	0.000000	0.000000	0.000000	0.000000	0.000000	0.000000	0.000000	0.000000	0.000000	0.000000	0.000000	0.000000	0.000000	0.000000	0.000000	0.000000	0.000000	0.000000	0.000000	0.000000	4.223360	418.304286	-52.788652	0.192950	0.000000	-1.070447	-0.000000	4.651047	0.000000	-1.214158	473.193132	50.451452	0.208633	0.000000	-1.398799	-0.000000	-4.309331	-0.000000
0.005500	0.000000	0.000000	0.000000	0.000000	0.000000	0.000000	0.000000	0.000000	0.000000	0.000000	0.000000	0.000000	0.000000	0.000000	0.000000	0.000000	0.000000	0.000000	0.000000	0.000000	0.000000	0.000000	0.000000	0.000000	0.000000	0.000000	0.000000	4.258231	418.289473	-52.799714	0.192946	0.000000	-1.070491	-0.000000	4.656607	0.000000	-1.211877	473.165587	50.467178	0.208627	0.000000	-1.398784	-0.000000	-4.308056	-0.000000
0.006000	0.000000	0.000000	0.000000	0.000000	0.000000	0.000000	0.000000	0.000000	0.000000	0.000000	0.000000	0.000000	0.000000	0.000000	0.000000	0.000000	0.000000	0.000000	0.000000	0.000000	0.000000	0.000000	0.000000	0.000000	0.000000	0.000000	0.000000	4.292224	418.276247	-52.810437	0.192943	0.000000	-1.070534	-0.000000	4.661960	0.000000	-1.209283	473.138183	50.482150	0.208621	0.000000	-1.398770	-0.000000	-4.306819	-0.000000
0.006500	0.000000	0.000000	0.000000	0.000000	0.000000	0.000000	0.000000	0.000000	0.000000	0.000000	0.000000	0.000000	0.000000	0.000000	0.000000	0.000000	0.000000	0.000000	0.000000	0.000000	0.000000	0.000000	0.000000	0.000000	0.000000	0.000000	0.000000	4.325298	418.264555	-52.820801	0.192940	0.000000	-1.070575	-0.000000	4.667100	0.000000	-1.206374	473.110942	50.496365	0.208615	0.000000	-1.398756	-0.000000	-4.305619	-0.000000
0.007000	0.000000	0.000000	0.000000	0.000000	0.000000	0.000000	0.000000	0.000000	0.000000	0.000000	0.000000	0.000000	0.000000	0.000000	0.000000	0.000000	0.000000	0.000000	0.000000	0.000000	0.000000	0.000000	0.000000	0.000000	0.000000	0.000000	0.000000	4.357415	418.254340	-52.830787	0.192937	0.000000	-1.070615	-0.000000	4.672023	0.000000	-1.203150	473.083883	50.509826	0.208610	0.000000	-1.398743	-0.000000	-4.304454	-0.000000
0.007500	0.000000	0.000000	0.000000	0.000000	0.000000	0.000000	0.000000	0.000000	0.000000	0.000000	0.000000	0.000000	0.000000	0.000000	0.000000	0.000000	0.000000	0.000000	0.000000	0.000000	0.000000	0.000000	0.000000	0.000000	0.000000	0.000000	0.000000	4.388544	418.245541	-52.840371	0.192934	0.000000	-1.070653	-0.000000	4.676729	0.000000	-1.199609	473.057033	50.522540	0.208604	0.000000	-1.398730	-0.000000	-4.303324	-0.000000
0.008000	0.000000	0.000000	0.000000	0.000000	0.000000	0.000000	0.000000	0.000000	0.000000	0.000000	0.000000	0.000000	0.000000	0.000000	0.000000	0.000000	0.000000	0.000000	0.000000	0.000000	0.000000	0.000000	0.000000	0.000000	0.000000	0.000000	0.000000	4.418663	418.238113	-52.849527	0.192932	0.000000	-1.070689	-0.000000	4.681217	0.000000	-1.195753	473.030423	50.534520	0.208599	0.000000	-1.398718	-0.000000	-4.302231	-0.000000
0.008500	0.000000	0.000000	0.000000	0.000000	0.000000	0.000000	0.000000	0.000000	0.000000	0.000000	0.000000	0.000000	0.000000	0.000000	0.000000	0.000000	0.000000	0.000000	0.000000	0.000000	0.000000	0.000000	0.000000	0.000000	0.000000	0.000000	0.000000	4.447764	418.232012	-52.858228	0.192929	0.000000	-1.070724	-0.000000	4.685488	0.000000	-1.191590	473.004078	50.545785	0.208594	0.000000	-1.398706	-0.000000	-4.301171	-0.000000
0.009000	0.000000	0.000000	0.000000	0.000000	0.000000	0.000000	0.000000	0.000000	0.000000	0.000000	0.000000	0.000000	0.000000	0.000000	0.000000	0.000000	0.000000	0.000000	0.000000	0.000000	0.000000	0.000000	0.000000	0.000000	0.000000	0.000000	0.000000	4.475843	418.227188	-52.866451	0.192927	0.000000	-1.070758	-0.000000	4.689542	0.000000	-1.187132	472.978009	50.556354	0.208590	0.000000	-1.398695	-0.000000	-4.300142	-0.000000
0.009500	0.000000	0.000000	0.000000	0.000000	0.000000	0.000000	0.000000	0.000000	0.000000	0.000000	0.000000	0.000000	0.000000	0.000000	0.000000	0.000000	0.000000	0.000000	0.000000	0.000000	0.000000	0.000000	0.000000	0.000000	0.000000	0.000000	0.000000	4.502907	418.223574	-52.874178	0.192925	0.000000	-1.070789	-0.000000	4.693384	0.000000	-1.182397	472.952207	50.566241	0.208585	0.000000	-1.398684	-0.000000	-4.299140	-0.000000
0.010000	0.000000	0.000000	0.000000	0.000000	0.000000	0.000000	0.000000	0.000000	0.000000	0.000000	0.000000	0.000000	0.000000	0.000000	0.000000	0.000000	0.000000	0.000000	0.000000	0.000000	0.000000	0.000000	0.000000	0.000000	0.000000	0.000000	0.000000	4.528965	418.221097	-52.881393	0.192923	0.000000	-1.070819	-0.000000	4.697015	0.000000	-1.177403	472.926658	50.575454	0.208580	0.000000	-1.398674	-0.000000	-4.298161	-0.000000
0.010500	0.000000	0.000000	0.000000	0.000000	0.000000	0.000000	0.000000	0.000000	0.000000	0.000000	0.000000	0.000000	0.000000	0.000000	0.000000	0.000000	0.000000	0.000000	0.000000	0.000000	0.000000	0.000000	0.000000	0.000000	0.000000	0.000000	0.000000	4.554023	418.219670	-52.888085	0.192921	0.000000	-1.070848	-0.000000	4.700439	0.000000	-1.172169	472.901348	50.583996	0.208576	0.000000	-1.398664	-0.000000	-4.297201	-0.000000
0.011000	0.000000	0.000000	0.000000	0.000000	0.000000	0.000000	0.000000	0.000000	0.000000	0.000000	0.000000	0.000000	0.000000	0.000000	0.000000	0.000000	0.000000	0.000000	0.000000	0.000000	0.000000	0.000000	0.000000	0.000000	0.000000	0.000000	0.000000	4.578088	418.219203	-52.894252	0.192919	0.000000	-1.070875	-0.000000	4.703655	0.000000	-1.166710	472.876276	50.591867	0.208571	0.000000	-1.398654	-0.000000	-4.296256	-0.000000
0.011500	0.000000	0.000000	0.000000	0.000000	0.000000	0.000000	0.000000	0.000000	0.000000	0.000000	0.000000	0.000000	0.000000	0.000000	0.000000	0.000000	0.000000	0.000000	0.000000	0.000000	0.000000	0.000000	0.000000	0.000000	0.000000	0.000000	0.000000	4.601160	418.219598	-52.899896	0.192917	0.000000	-1.070901	-0.000000	4.706663	0.000000	-1.161041	472.851448	50.599065	0.208567	0.000000	-1.398645	-0.000000	-4.295326	-0.000000
0.012000	0.000000	0.000000	0.000000	0.000000	0.000000	0.000000	0.000000	0.000000	0.000000	0.000000	0.000000	0.000000	0.000000	0.000000	0.000000	0.000000	0.000000	0.000000	0.000000	0.000000	0.000000	0.000000	0.000000	0.000000	0.000000	0.000000	0.000000	4.623235	418.220767	-52.905029	0.192915	0.000000	-1.070925	-0.000000	4.709462	0.000000	-1.155172	472.826876	50.605587	0.208562	0.000000	-1.398636	-0.000000	-4.294408	-0.000000
